<svg width="299" height="300" viewBox="0 0 299 300" fill="none" xmlns="http://www.w3.org/2000/svg">
<path fill-rule="evenodd" clip-rule="evenodd" d="M40 0C17.9086 0 0 17.9086 0 40V260C0 282.091 17.9086 300 39.9999 300H258.013C280.105 300 298.013 282.091 298.013 260V40C298.013 17.9086 280.105 0 258.013 0H40ZM114.462 78.461C109.898 85.2919 107.462 93.3229 107.462 101.538C107.462 112.555 111.838 123.121 119.628 130.911C127.418 138.701 137.983 143.077 149 143.077C157.216 143.077 165.247 140.641 172.078 136.076C178.909 131.512 184.233 125.025 187.377 117.435C190.52 109.844 191.343 101.492 189.74 93.4347C188.138 85.3771 184.181 77.9756 178.372 72.1664C172.563 66.3571 165.161 62.4009 157.104 60.7982C149.046 59.1954 140.694 60.018 133.104 63.1619C125.514 66.3059 119.026 71.63 114.462 78.461ZM65.0832 233.917C68.9782 237.812 74.2609 240 79.7692 240H218.231C223.739 240 229.022 237.812 232.917 233.917C236.812 230.022 239 224.739 239 219.231C239 202.706 232.435 186.858 220.751 175.173C209.066 163.488 193.217 156.923 176.692 156.923H121.308C104.783 156.923 88.9345 163.488 77.2495 175.173C65.5645 186.858 59 202.706 59 219.231C59 224.739 61.1882 230.022 65.0832 233.917Z" fill="#D9071C"/>
</svg>
