<svg width="2421" height="300" viewBox="0 0 2421 300" fill="none" xmlns="http://www.w3.org/2000/svg">
<path d="M454 154L465 124H467L478 154H454ZM445 190H487L492 202C497 214 505 222 516 222C529 222 538 213 538 202C538 196 533 184 533 184L501 100C495.2 85 486 76 466 76C446 76 437 85 431 100L399 184C399 184 394 196 394 202C394 213 403 222 416 222C427 222 435 214 440 202L445 190ZM687.945 140C687.945 106 661.945 80 618.945 80H583.945C569.945 80 561.945 88 561.945 100V200C561.945 212 569.945 220 583.945 220H618.945C661.945 220 687.945 194 687.945 160V140ZM618.945 116C632.945 116 642.945 126 642.945 140V160C642.945 174 632.945 184 618.945 184H605.945V116H618.945ZM818.016 120C832.016 120 840.016 112 840.016 100C840.016 88 832.016 80 818.016 80H742.016C728.016 80 720.016 88 720.016 100V200C720.016 212 728.016 220 742.016 220H820.016C834.016 220 842.016 212 842.016 200C842.016 188 834.016 180 820.016 180H764.016V168H802.016C814.016 168 822.016 160 822.016 150C822.016 140 814.016 132 802.016 132H764.016V120H818.016ZM862.93 164C862.93 198 888.93 224 929.93 224C966.93 224 986.93 204 986.93 190C986.93 179 979.93 172 964.93 172C948.93 172 946.93 186 929.93 186C916.93 186 907.93 177 907.93 164V136C907.93 123 916.93 114 929.93 114C944.93 114 946.93 128 962.93 128C977.93 128 984.93 121 984.93 110C984.93 96 964.93 76 929.93 76C888.93 76 862.93 102 862.93 136V164ZM1043.91 120V202C1043.91 214 1051.91 222 1065.91 222C1079.91 222 1087.91 214 1087.91 202V120H1109.91C1123.91 120 1131.91 112 1131.91 100C1131.91 88 1123.91 80 1109.91 80H1021.91C1007.91 80 999.914 88 999.914 100C999.914 112 1007.91 120 1021.91 120H1043.91ZM1209.95 126L1183.95 88C1183.95 88 1176.95 78 1165.95 78C1150.95 78 1142.95 86 1142.95 98C1142.95 106 1150.95 116 1150.95 116L1188.95 170V202C1188.95 214 1196.95 222 1210.95 222C1224.95 222 1232.95 214 1232.95 202V170L1270.95 116C1270.95 116 1278.95 106 1278.95 98C1278.95 86 1270.95 78 1255.95 78C1244.95 78 1237.95 88 1237.95 88L1211.95 126H1209.95ZM1416.94 154L1427.94 124H1429.94L1440.94 154H1416.94ZM1407.94 190H1449.94L1454.94 202C1459.94 214 1467.94 222 1478.94 222C1491.94 222 1500.94 213 1500.94 202C1500.94 196 1495.94 184 1495.94 184L1463.94 100C1458.14 85 1448.94 76 1428.94 76C1408.94 76 1399.94 85 1393.94 100L1361.94 184C1361.94 184 1356.94 196 1356.94 202C1356.94 213 1365.94 222 1378.94 222C1389.94 222 1397.94 214 1402.94 202L1407.94 190ZM1515.98 164C1515.98 198 1541.98 224 1582.98 224C1619.98 224 1639.98 204 1639.98 190C1639.98 179 1632.98 172 1617.98 172C1601.98 172 1599.98 186 1582.98 186C1569.98 186 1560.98 177 1560.98 164V136C1560.98 123 1569.98 114 1582.98 114C1597.98 114 1599.98 128 1615.98 128C1630.98 128 1637.98 121 1637.98 110C1637.98 96 1617.98 76 1582.98 76C1541.98 76 1515.98 102 1515.98 136V164ZM1659.01 164C1659.01 198 1685.01 224 1726.01 224C1763.01 224 1783.01 204 1783.01 190C1783.01 179 1776.01 172 1761.01 172C1745.01 172 1743.01 186 1726.01 186C1713.01 186 1704.01 177 1704.01 164V136C1704.01 123 1713.01 114 1726.01 114C1741.01 114 1743.01 128 1759.01 128C1774.01 128 1781.01 121 1781.01 110C1781.01 96 1761.01 76 1726.01 76C1685.01 76 1659.01 102 1659.01 136V164ZM1937.99 136C1937.99 102 1911.99 76 1870.99 76C1829.99 76 1803.99 102 1803.99 136V164C1803.99 198 1829.99 224 1870.99 224C1911.99 224 1937.99 198 1937.99 164V136ZM1892.99 164C1892.99 180 1882.99 190 1870.99 190C1858.99 190 1848.99 180 1848.99 164V136C1848.99 120 1858.99 110 1870.99 110C1882.99 110 1892.99 120 1892.99 136V164ZM2033.99 224C2073.99 224 2097.99 200 2097.99 166V98C2097.99 86 2089.99 78 2075.99 78C2061.99 78 2053.99 86 2053.99 98V166C2053.99 180 2045.99 188 2033.99 188C2021.99 188 2013.99 180 2013.99 166V98C2013.99 86 2005.99 78 1991.99 78C1977.99 78 1969.99 86 1969.99 98V166C1969.99 200 1993.99 224 2033.99 224ZM2180.9 156L2214.9 202C2223.9 215 2230.9 222 2242.9 222C2256.9 222 2264.9 213.8 2264.9 202V98C2264.9 86 2256.9 78 2242.9 78C2228.9 78 2220.9 86 2220.9 98V144H2218.9L2184.9 98C2175.9 85 2168.9 78 2156.9 78C2142.9 78 2134.9 86.2 2134.9 98V202C2134.9 214 2142.9 222 2156.9 222C2170.9 222 2178.9 214 2178.9 202V156H2180.9ZM2332.95 120V202C2332.95 214 2340.95 222 2354.95 222C2368.95 222 2376.95 214 2376.95 202V120H2398.95C2412.95 120 2420.95 112 2420.95 100C2420.95 88 2412.95 80 2398.95 80H2310.95C2296.95 80 2288.95 88 2288.95 100C2288.95 112 2296.95 120 2310.95 120H2332.95Z" fill="#D9071C"/>
<path fill-rule="evenodd" clip-rule="evenodd" d="M40 0C17.9086 0 0 17.9086 0 40V260C0 282.091 17.9086 300 39.9999 300H258.013C280.105 300 298.013 282.091 298.013 260V40C298.013 17.9086 280.105 0 258.013 0H40ZM114.462 78.461C109.898 85.2919 107.462 93.3229 107.462 101.538C107.462 112.555 111.838 123.121 119.628 130.911C127.418 138.701 137.983 143.077 149 143.077C157.216 143.077 165.247 140.641 172.078 136.076C178.909 131.512 184.233 125.025 187.377 117.435C190.52 109.844 191.343 101.492 189.74 93.4347C188.138 85.3771 184.181 77.9756 178.372 72.1664C172.563 66.3571 165.161 62.4009 157.104 60.7982C149.046 59.1954 140.694 60.018 133.104 63.1619C125.514 66.3059 119.026 71.63 114.462 78.461ZM65.0832 233.917C68.9782 237.812 74.2609 240 79.7692 240H218.231C223.739 240 229.022 237.812 232.917 233.917C236.812 230.022 239 224.739 239 219.231C239 202.706 232.435 186.858 220.751 175.173C209.066 163.488 193.217 156.923 176.692 156.923H121.308C104.783 156.923 88.9345 163.488 77.2495 175.173C65.5645 186.858 59 202.706 59 219.231C59 224.739 61.1882 230.022 65.0832 233.917Z" fill="#D9071C"/>
</svg>
